<svg version="1.1" id="Layer_1" xmlns="http://www.w3.org/2000/svg" xmlns:xlink="http://www.w3.org/1999/xlink" x="0px" y="0px"
	 width="100%" viewBox="0 0 1280 1280" enable-background="new 0 0 1280 1280" xml:space="preserve">
<path fill="#000000" opacity="1.000000" stroke="none" 
	d="
M716.000000,1281.000000 
	C477.333344,1281.000000 239.166672,1281.000000 1.000000,1281.000000 
	C1.000000,854.333313 1.000000,427.666656 1.000000,1.000000 
	C427.666656,1.000000 854.333313,1.000000 1281.000000,1.000000 
	C1281.000000,427.666656 1281.000000,854.333313 1281.000000,1281.000000 
	C1092.833374,1281.000000 904.666687,1281.000000 716.000000,1281.000000 
M573.194519,541.922485 
	C564.602478,546.245300 555.870056,546.635742 547.304810,542.157715 
	C537.438965,536.999756 532.950745,528.311157 532.523560,517.382812 
	C518.456482,517.382812 504.737640,517.382812 490.887970,517.382812 
	C490.796936,518.333984 490.681030,518.980774 490.680756,519.627563 
	C490.658539,571.275146 490.613647,622.922791 490.750031,674.570007 
	C490.755371,676.589417 492.096893,678.955505 493.497070,680.568848 
	C517.159485,707.834290 540.892029,735.039368 564.774170,762.112244 
	C566.160400,763.683716 568.951599,764.801025 571.092590,764.806824 
	C625.072754,764.954346 679.053406,764.993530 733.033752,764.899536 
	C765.184265,764.843506 791.207336,739.054504 791.317322,706.872253 
	C791.495544,654.725159 791.379700,602.576843 791.204529,550.429626 
	C791.197571,548.348022 789.826416,545.657959 788.210510,544.294983 
	C778.168457,535.824646 767.945496,527.562317 757.596802,519.468445 
	C755.828979,518.085754 753.169006,517.180664 750.918457,517.175293 
	C697.771301,517.047791 644.623718,517.071716 591.476257,517.084900 
	C590.060120,517.085266 588.643982,517.274841 587.219727,517.376709 
	C586.824768,528.055481 582.590271,536.083069 573.194519,541.922485 
z"/>
<path fill="#FEFEFE" opacity="1.000000" stroke="none" 
	d="
M573.525146,541.742310 
	C582.590271,536.083069 586.824768,528.055481 587.219727,517.376709 
	C588.643982,517.274841 590.060120,517.085266 591.476257,517.084900 
	C644.623718,517.071716 697.771301,517.047791 750.918457,517.175293 
	C753.169006,517.180664 755.828979,518.085754 757.596802,519.468445 
	C767.945496,527.562317 778.168457,535.824646 788.210510,544.294983 
	C789.826416,545.657959 791.197571,548.348022 791.204529,550.429626 
	C791.379700,602.576843 791.495544,654.725159 791.317322,706.872253 
	C791.207336,739.054504 765.184265,764.843506 733.033752,764.899536 
	C679.053406,764.993530 625.072754,764.954346 571.092590,764.806824 
	C568.951599,764.801025 566.160400,763.683716 564.774170,762.112244 
	C540.892029,735.039368 517.159485,707.834290 493.497070,680.568848 
	C492.096893,678.955505 490.755371,676.589417 490.750031,674.570007 
	C490.613647,622.922791 490.658539,571.275146 490.680756,519.627563 
	C490.681030,518.980774 490.796936,518.333984 490.887970,517.382812 
	C504.737640,517.382812 518.456482,517.382812 532.523560,517.382812 
	C532.950745,528.311157 537.438965,536.999756 547.304810,542.157715 
	C555.870056,546.635742 564.602478,546.245300 573.525146,541.742310 
M758.734741,637.500366 
	C758.714600,632.012451 758.809814,626.521179 758.650452,621.037292 
	C758.310120,609.326782 749.284363,600.644592 737.765442,600.799011 
	C726.454651,600.950623 717.907898,609.686890 717.839905,621.313782 
	C717.767029,633.786438 717.796204,646.259705 717.808228,658.732727 
	C717.820251,671.205566 726.113770,680.093262 737.783752,680.182129 
	C749.782654,680.273499 758.615601,671.350220 758.721985,658.956055 
	C758.780457,652.137939 758.733948,645.318970 758.734741,637.500366 
M665.983093,680.003967 
	C681.295471,680.816589 689.951233,672.774719 689.994385,657.634094 
	C690.027527,645.990479 690.025146,634.346619 689.990234,622.703003 
	C689.952148,610.005737 681.554199,600.929626 669.784851,600.794678 
	C657.823120,600.657532 649.118225,609.796997 649.044006,622.705200 
	C648.977051,634.348572 648.995667,645.992676 649.037415,657.636230 
	C649.080261,669.575134 653.692627,675.893555 665.983093,680.003967 
z"/>
<path fill="#030303" opacity="1.000000" stroke="none" 
	d="
M758.734741,638.000366 
	C758.733948,645.318970 758.780457,652.137939 758.721985,658.956055 
	C758.615601,671.350220 749.782654,680.273499 737.783752,680.182129 
	C726.113770,680.093262 717.820251,671.205566 717.808228,658.732727 
	C717.796204,646.259705 717.767029,633.786438 717.839905,621.313782 
	C717.907898,609.686890 726.454651,600.950623 737.765442,600.799011 
	C749.284363,600.644592 758.310120,609.326782 758.650452,621.037292 
	C758.809814,626.521179 758.714600,632.012451 758.734741,638.000366 
z"/>
<path fill="#040404" opacity="1.000000" stroke="none" 
	d="
M665.561035,679.932983 
	C653.692627,675.893555 649.080261,669.575134 649.037415,657.636230 
	C648.995667,645.992676 648.977051,634.348572 649.044006,622.705200 
	C649.118225,609.796997 657.823120,600.657532 669.784851,600.794678 
	C681.554199,600.929626 689.952148,610.005737 689.990234,622.703003 
	C690.025146,634.346619 690.027527,645.990479 689.994385,657.634094 
	C689.951233,672.774719 681.295471,680.816589 665.561035,679.932983 
z"/>
</svg>