<svg version="1.1" id="Layer_1" xmlns="http://www.w3.org/2000/svg" xmlns:xlink="http://www.w3.org/1999/xlink" x="0px" y="0px"
	 width="100%" viewBox="0 0 673 673" enable-background="new 0 0 673 673" xml:space="preserve">
<path fill="#000000" opacity="1.000000" stroke="none" 
	d="
M1.000000,673.000000 
	C1.000000,449.069885 1.000000,225.139786 1.000000,1.000000 
	C224.693481,1.000000 448.387024,1.000000 672.540527,1.468657 
	C673.000427,225.506058 673.000427,449.074799 673.000427,673.000000 
	C448.555908,673.000000 224.777954,673.000000 1.000000,673.000000 
M196.726608,384.782715 
	C218.518768,409.742065 240.275879,434.732300 262.189636,459.584412 
	C263.512665,461.084900 266.080658,462.277710 268.072815,462.282867 
	C322.552460,462.423859 377.033325,462.565948 431.512238,462.320953 
	C462.885101,462.179840 488.721130,436.163361 488.839600,404.740814 
	C489.036224,352.594025 488.927429,300.445831 488.748077,248.298889 
	C488.740356,246.065613 487.294312,243.185028 485.571411,241.718063 
	C475.937256,233.515106 466.120819,225.512878 456.102295,217.784775 
	C453.829742,216.031769 450.513519,214.755173 447.672607,214.745468 
	C395.025848,214.565536 342.378357,214.609055 289.730988,214.619156 
	C288.127899,214.619461 286.524811,214.766602 285.024139,214.840256 
	C282.274780,232.676239 272.595154,242.555954 258.049042,242.780411 
	C242.835480,243.015182 233.425644,233.851257 229.633926,214.952805 
	C215.947693,214.952805 202.224426,214.952805 188.109497,214.952805 
	C188.109497,217.108704 188.109589,218.922745 188.109482,220.736771 
	C188.106705,268.052734 188.330704,315.370789 187.897781,362.682831 
	C187.817261,371.482086 189.500168,378.588867 196.726608,384.782715 
z"/>
<path fill="#787878" opacity="1.000000" stroke="none" 
	d="
M1.000000,673.500000 
	C224.777954,673.000000 448.555908,673.000000 673.000427,673.000000 
	C673.000427,449.074799 673.000427,225.506058 673.000244,1.468669 
	C673.333313,1.166691 673.943787,1.315938 673.955566,1.502817 
	C674.039001,2.830881 674.000000,4.166667 674.000000,5.500000 
	C674.000000,228.333328 674.000000,451.166656 674.000000,674.000000 
	C449.666656,674.000000 225.333328,674.000000 1.000000,673.500000 
z"/>
<path fill="#FDFDFD" opacity="1.000000" stroke="none" 
	d="
M196.495941,384.513367 
	C189.500168,378.588867 187.817261,371.482086 187.897781,362.682831 
	C188.330704,315.370789 188.106705,268.052734 188.109482,220.736771 
	C188.109589,218.922745 188.109497,217.108704 188.109497,214.952805 
	C202.224426,214.952805 215.947693,214.952805 229.633926,214.952805 
	C233.425644,233.851257 242.835480,243.015182 258.049042,242.780411 
	C272.595154,242.555954 282.274780,232.676239 285.024139,214.840256 
	C286.524811,214.766602 288.127899,214.619461 289.730988,214.619156 
	C342.378357,214.609055 395.025848,214.565536 447.672607,214.745468 
	C450.513519,214.755173 453.829742,216.031769 456.102295,217.784775 
	C466.120819,225.512878 475.937256,233.515106 485.571411,241.718063 
	C487.294312,243.185028 488.740356,246.065613 488.748077,248.298889 
	C488.927429,300.445831 489.036224,352.594025 488.839600,404.740814 
	C488.721130,436.163361 462.885101,462.179840 431.512238,462.320953 
	C377.033325,462.565948 322.552460,462.423859 268.072815,462.282867 
	C266.080658,462.277710 263.512665,461.084900 262.189636,459.584412 
	C240.275879,434.732300 218.518768,409.742065 196.495941,384.513367 
M381.365326,371.854156 
	C385.399933,367.751312 387.503326,362.878174 387.489105,357.068726 
	C387.458221,344.429993 387.640686,331.789307 387.475922,319.152802 
	C387.320251,307.213196 378.523621,298.312866 367.175873,298.219727 
	C355.865601,298.126892 346.861969,306.917389 346.619171,318.854919 
	C346.358887,331.654694 346.407745,344.466400 346.616180,357.268097 
	C346.754944,365.788330 350.637787,372.339386 358.579651,375.868622 
	C366.645325,379.452789 374.146790,378.111176 381.365326,371.854156 
M456.134216,320.628326 
	C455.947662,307.195557 447.476044,298.090363 435.340912,298.231903 
	C425.171021,298.350494 414.511292,306.806366 415.121521,320.745605 
	C415.644653,332.694061 415.157318,344.684479 415.225861,356.655731 
	C415.295593,368.842255 424.096100,377.829163 435.728455,377.750244 
	C447.411499,377.670959 456.080231,368.698761 456.137573,356.512695 
	C456.192352,344.873840 456.148804,333.234467 456.134216,320.628326 
z"/>
<path fill="#040404" opacity="1.000000" stroke="none" 
	d="
M381.106934,372.107361 
	C374.146790,378.111176 366.645325,379.452789 358.579651,375.868622 
	C350.637787,372.339386 346.754944,365.788330 346.616180,357.268097 
	C346.407745,344.466400 346.358887,331.654694 346.619171,318.854919 
	C346.861969,306.917389 355.865601,298.126892 367.175873,298.219727 
	C378.523621,298.312866 387.320251,307.213196 387.475922,319.152802 
	C387.640686,331.789307 387.458221,344.429993 387.489105,357.068726 
	C387.503326,362.878174 385.399933,367.751312 381.106934,372.107361 
z"/>
<path fill="#050505" opacity="1.000000" stroke="none" 
	d="
M456.141357,321.111816 
	C456.148804,333.234467 456.192352,344.873840 456.137573,356.512695 
	C456.080231,368.698761 447.411499,377.670959 435.728455,377.750244 
	C424.096100,377.829163 415.295593,368.842255 415.225861,356.655731 
	C415.157318,344.684479 415.644653,332.694061 415.121521,320.745605 
	C414.511292,306.806366 425.171021,298.350494 435.340912,298.231903 
	C447.476044,298.090363 455.947662,307.195557 456.141357,321.111816 
z"/>
</svg>